<?xml version="1.0" standalone="no"?><!DOCTYPE svg PUBLIC "-//W3C//DTD SVG 1.1//EN" "http://www.w3.org/Graphics/SVG/1.1/DTD/svg11.dtd"><svg t="1608601517190" class="icon" viewBox="0 0 1024 1024" version="1.1" xmlns="http://www.w3.org/2000/svg" p-id="2076" xmlns:xlink="http://www.w3.org/1999/xlink" width="128" height="128"><defs><style type="text/css"></style></defs><path d="M628.9 64.22c-39.36 0-76.8 5.38-105.41 15.16-15.81 5.4-28.7 12.07-38.3 19.82-17.75 14.33-21.82 30.05-22.02 40.99-0.01 0.28-0.01 0.56-0.01 0.84v75.37c-15.76 14.24-19.81 29.27-20.01 40.56-0.01 0.29-0.01 0.58-0.01 0.87v155.95c0 19.72-7.68 38.26-21.62 52.2L244.83 642.67c-17.72 17.72-31.45 38.4-40.8 61.47-9.03 22.26-13.6 45.77-13.6 69.89 0 24.11 4.58 47.63 13.6 69.89 9.35 23.06 23.08 43.74 40.8 61.47 17.72 17.72 38.4 31.45 61.47 40.8 22.26 9.03 45.77 13.6 69.89 13.6 24.11 0 47.62-4.58 69.89-13.6 23.06-9.35 43.74-23.08 61.47-40.8l226.83-226.83c20.25-9.98 38.13-23.48 53.22-40.18 15.79-17.47 27.8-37.63 35.71-59.92 7.91-22.28 11.28-45.51 10.04-69.02-1.29-24.4-7.52-47.95-18.51-69.98l-0.16-0.33V258.39v-0.53c0-11.38-3.85-26.83-20.02-41.44V141.5v-0.47c0-10.97-3.82-27.13-22.02-41.83-9.6-7.76-22.49-14.43-38.3-19.83-28.64-9.76-66.08-15.15-105.44-15.15z" fill="#3B394D" p-id="2077"></path><path d="M802.9 518.78c0 55.92-31.97 109.56-86.48 134.31L485.84 883.68c-28.48 28.47-65.29 43.57-102.6 45.25-2.35 0.11-4.71 0.16-7.07 0.16-10.61 0-21.22-1.08-31.64-3.25a154.122 154.122 0 0 1-61.62-27.91c-5.72-4.31-11.19-9.06-16.39-14.26-1.88-1.88-3.7-3.79-5.47-5.75-15.28-16.92-26.19-36.4-32.7-56.96-3.63-11.45-5.9-23.25-6.8-35.12-3.3-43.54 11.68-88.2 44.97-121.49l176.69-176.68a104.497 104.497 0 0 0 30.6-73.89V257.83h0.01c0 15.94 20.62 30.24 53.24 39.95 9.01 2.68 18.93 5.01 29.6 6.93 16.56 2.99 34.89 4.97 54.32 5.73 5.88 0.24 11.85 0.36 17.92 0.36 3.29 0 6.56-0.03 9.79-0.11h0.36c0.52-0.01 1.02-0.02 1.53-0.04 19.31-0.48 37.63-2.19 54.32-4.87 10.57-1.7 20.49-3.79 29.6-6.24 35.73-9.56 58.87-24.36 59.48-41.02v187.82l3.4 6.79c10.54 21.14 15.52 43.58 15.52 65.65z" fill="#B8E5FA" p-id="2078"></path><path d="M556.66 304.71v118.04c0 44.35-17.27 86.05-48.63 117.41l-186.1 186.86a199.511 199.511 0 0 0-34.37-7.44l199.52-200.34c25.79-25.78 39.99-60.04 39.99-96.49V297.77c9 2.68 18.92 5.02 29.59 6.94z" fill="#FFFFFF" p-id="2079"></path><path d="M640.57 310.64v159.59c0 11.1-1.07 22.02-3.19 32.65-0.27 1.33-0.54 2.65-0.84 3.97-0.88 3.96-1.91 7.89-3.09 11.75-0.39 1.29-0.8 2.58-1.22 3.86-0.2 0.63-0.42 1.28-0.64 1.91-0.44 1.28-0.9 2.55-1.36 3.8-0.24 0.63-0.47 1.26-0.72 1.88-0.97 2.52-2 5-3.09 7.47-0.27 0.61-0.54 1.23-0.83 1.84-0.56 1.22-1.15 2.43-1.73 3.64-0.89 1.82-1.81 3.62-2.76 5.4-0.32 0.59-0.63 1.19-0.96 1.78-1.95 3.54-4.04 7.02-6.26 10.42-0.74 1.14-1.49 2.26-2.26 3.37a167.866 167.866 0 0 1-8.59 11.43c-0.87 1.06-1.76 2.11-2.65 3.15-0.9 1.03-1.81 2.07-2.73 3.08-0.46 0.51-0.93 1.02-1.4 1.52-0.94 1.01-1.89 2.01-2.85 3.01-0.48 0.49-0.97 0.98-1.46 1.47L448.39 731.78l-44.58 44.76c-7-7.01-14.51-13.48-22.48-19.38l189.66-190.43c1.62-1.62 3.18-3.25 4.7-4.93 3.79-4.19 7.31-8.58 10.53-13.14 0.64-0.92 1.28-1.84 1.89-2.76 1.24-1.85 2.43-3.73 3.58-5.64 12.57-20.96 19.28-44.98 19.28-70.03v-159.8c5.88 0.24 11.85 0.36 17.92 0.36 3.29 0 6.56-0.03 9.79-0.11h0.36c0.52-0.01 1.02-0.02 1.53-0.04z" fill="#FFFFFF" p-id="2080"></path><path d="M724.49 299.53v218.19c0 44.34-17.27 86.04-48.63 117.41L453.42 858.48a196.877 196.877 0 0 0-12.04-29.87L654.9 614.22c25.79-25.79 39.99-60.05 39.99-96.49V305.77c10.57-1.7 20.49-3.79 29.6-6.24z" fill="#FFFFFF" p-id="2081"></path><path d="M716.42 653.08L485.83 883.67a155.91 155.91 0 0 1-23.96 19.64c-2.96-40.79-18.14-78.19-41.91-108.53 9.26-20.53 18.73-41.52 28.42-63l143.56-144.14c31.37-31.36 48.63-73.05 48.63-117.41V310.65c80.19-2.05 143.4-24.91 143.4-52.82v188.5l3.39 6.79c37.26 74.72 5.08 165.44-70.94 199.96zM628.89 295.9c5.64 0 11.18-0.12 16.63-0.35-1.65 3.66-6.21 13.73-6.84 15.13-3.23 0.08-6.49 0.11-9.79 0.11-85.64 0-155.07-23.71-155.07-52.97 0-9.47 7.27-18.36 20.01-26.05v17.99c0 12.75 15.12 24.28 39.56 32.62 24.44 8.36 58.22 13.52 95.5 13.52z" fill="#46AFE4" p-id="2082"></path><path d="M763.95 141.63v108.14c0 25.49-60.46 46.13-135.06 46.13-37.29 0-71.07-5.16-95.5-13.51-24.44-8.35-39.56-19.87-39.56-32.62V141.04c0 25.48 60.47 46.12 135.06 46.12 74.02 0 134.13-20.33 135.06-45.53z" fill="#FDA2B8" p-id="2083"></path><path d="M403.8 776.53l44.58-44.75c-9.7 21.48-19.17 42.47-28.42 63-5.01-6.41-10.41-12.5-16.16-18.25zM724.49 299.53v218.19c0 44.34-17.27 86.04-48.63 117.41L453.42 858.48a196.877 196.877 0 0 0-12.04-29.87L654.9 614.22c25.79-25.79 39.99-60.05 39.99-96.49V305.77c10.57-1.7 20.49-3.79 29.6-6.24z" fill="#B8E5FA" p-id="2084"></path><path d="M461.87 903.31C436 920.5 406.08 929.1 376.18 929.1c-39.68 0-79.37-15.15-109.65-45.43-44.11-44.1-56.1-108.16-35.96-163.11 10.39-1.67 21.06-2.54 31.92-2.54 105.48 0.01 191.89 81.7 199.38 185.29z" fill="#FDA2B8" p-id="2085"></path><path d="M461.87 903.31c-2.42 1.62-4.89 3.15-7.38 4.6-0.81 0.48-1.63 0.95-2.44 1.41-0.12 0.07-0.26 0.14-0.39 0.21-0.73 0.4-1.46 0.81-2.19 1.2-0.71 0.38-1.41 0.75-2.12 1.12-0.25 0.13-0.49 0.26-0.74 0.38-0.76 0.38-1.5 0.76-2.26 1.13-0.64 0.32-1.28 0.62-1.92 0.92-2.8 1.34-5.65 2.58-8.51 3.71-1.75 0.71-3.5 1.37-5.27 2-0.03 0.01-0.07 0.03-0.11 0.04-0.82 0.29-1.64 0.57-2.46 0.86-0.12 0.04-0.25 0.08-0.37 0.12-0.82 0.28-1.65 0.54-2.47 0.81-0.9 0.29-1.8 0.56-2.7 0.83-0.06 0.02-0.13 0.04-0.19 0.06-0.84 0.25-1.68 0.49-2.52 0.72-0.91 0.26-1.82 0.5-2.73 0.74-0.66 0.17-1.33 0.34-1.99 0.5-0.06 0.01-0.12 0.03-0.18 0.04-0.5 0.12-1 0.25-1.51 0.36-0.59 0.14-1.19 0.28-1.79 0.41-0.89 0.19-1.78 0.39-2.67 0.56-1.86 0.38-3.74 0.72-5.62 1.02-0.92 0.15-1.85 0.3-2.77 0.43-0.93 0.14-1.85 0.27-2.78 0.38-0.93 0.12-1.86 0.24-2.79 0.33-0.02 0.01-0.04 0.01-0.07 0.01-0.9 0.1-1.81 0.18-2.72 0.27-0.74 0.07-1.48 0.13-2.22 0.18-1.2 0.09-2.38 0.17-3.58 0.24-0.82 0.04-1.63 0.08-2.44 0.1-0.11 0.01-0.21 0.01-0.33 0.02l-2.21 0.06c-0.33 0-0.66 0.01-0.99 0.01-0.75 0.01-1.48 0.02-2.23 0.02-5.45 0-10.9-0.29-16.32-0.86 18.81-41.82 38.87-86.37 60.1-133.46 23.74 30.33 38.93 67.73 41.88 108.52z" fill="#DE3C5B" p-id="2086"></path><path d="M640.57 310.65c-1.08 25.07 2.96 171-3.19 192.24-5.09 25.87-16.54 50.38-33.05 70.93 3.62-0.91-152.27 153.75-155.94 157.96 11.24-24.93 22.79-50.5 34.6-76.67 12.03-13.03 95.58-93.35 103.24-106.44 16.09-22.83 24.75-49.96 24.75-78.43v-98.31c9.13-20.18 18.37-40.59 27.7-61.24 0.63-0.01 1.27-0.03 1.89-0.04z" fill="#B8E5FA" p-id="2087"></path><path d="M610.97 371.92v98.31c0 36.45-14.19 70.71-39.98 96.5l-88.01 88.37c39.67-87.85 82.47-182.55 127.99-283.18z" fill="#46AFE4" p-id="2088"></path><path d="M763.96 141.04v108.73c0 2.75-0.71 5.44-2.05 8.06-10.22 19.81-57.43 35.26-116.39 37.73 5.66-12.5 11.35-25.07 17.08-37.73 7.39-16.33 14.84-32.8 22.36-49.4 4.15-9.18 8.33-18.41 12.53-27.66 39.78-8.02 66.47-22.81 66.47-39.73zM716.42 653.08l-13.04-7.65a186.321 186.321 0 0 1-85.26-110.77l14.93-14.89a258.242 258.242 0 0 1 150.92-73.44l3.39 6.79c37.26 74.72 5.08 165.44-70.94 199.96z" fill="#DE3C5B" p-id="2089"></path></svg>