<?xml version="1.0" standalone="no"?><!DOCTYPE svg PUBLIC "-//W3C//DTD SVG 1.1//EN" "http://www.w3.org/Graphics/SVG/1.1/DTD/svg11.dtd"><svg t="1608601352493" class="icon" viewBox="0 0 1024 1024" version="1.1" xmlns="http://www.w3.org/2000/svg" p-id="1912" xmlns:xlink="http://www.w3.org/1999/xlink" width="128" height="128"><defs><style type="text/css"></style></defs><path d="M635.07 98.23c-22.88 0-36.94 9.26-44.71 17.02-0.09 0.09-0.18 0.17-0.26 0.26l-0.79 0.79-2.97 2.97-10.5 10.5-30.94 30.94c-12.82 12.82-25.05 25.05-31.62 31.63l-5.34 1.89c-82.75 29.25-276.53 97.74-345.69 116.22-0.65 0.17-1.3 0.37-1.94 0.58-37.67 12.72-63.72 49.45-63.39 89.35 0.04 24.79 9.78 48.22 27.44 65.99 16.36 16.46 37.62 26.13 60.4 27.6-6.28 8.14-12.1 16.65-17.39 25.45-0.16 0.26-0.31 0.53-0.46 0.79-13.03 22.38-22.86 45.84-29.24 69.72-6.16 23.07-9.14 46.71-8.86 70.26 0.52 44.41 12.76 88.72 35.39 128.15 23.24 40.49 56.56 74.69 96.36 98.91 41.4 25.19 88.27 38.51 135.54 38.51 46.97 0 92.78-12.73 136.19-37.83 0.33-0.18 0.65-0.37 0.97-0.56 34.38-20.64 66.98-44.8 96.9-71.8 29.93-27.01 57.28-56.97 81.28-89.04 30.97-38.97 66.9-109.48 95.82-166.22 8.69-17.05 16.94-33.24 24.01-46.5l0.08-0.08 8.88-8.87 27.21-27.21 42.61-42.61c0.02-0.02 0.05-0.04 0.07-0.07 9.19-9.19 19.51-26.12 16.48-54.58-1.72-16.19-7.64-34.68-17.59-54.95-18.61-37.91-50.42-80.35-89.58-119.51-31.08-31.08-64.23-57.58-95.88-76.63-34.28-20.62-64.04-31.07-88.48-31.07z" fill="#3B394D" p-id="1913"></path><path d="M517.12 860.54a235.078 235.078 0 0 1-120.74 33.36c-30.24 0-60.59-5.83-89.32-17.64a235.102 235.102 0 0 1-131.8-137.7l-0.76-2.12c-24.31-67.43-16.26-141.14 19.66-200.87-7.11 42.83 40.29 127.26 118.87 205.85 77.52 77.51 160.74 124.68 204.09 119.12z" fill="#F5922F" p-id="1914"></path><path d="M686.38 707.74a591.656 591.656 0 0 1-42.22 50.3 592.89 592.89 0 0 1-96.01 82.53 583.352 583.352 0 0 1-31.02 19.97c-43.35 5.56-126.57-41.61-204.08-119.12-78.58-78.59-125.97-163.02-118.87-205.85 8.1-13.47 17.61-26.23 28.5-38.06 2.19-2.39 4.45-4.74 6.75-7.04l43.02-43.02-70.03 14.36c-39.7 7.26-74.21-23.8-74.21-61.58 0-5.27 0.67-10.67 2.09-16.11a62.827 62.827 0 0 1 40.02-43.42l110.42-33.71-31.12 27.42 149.33 50.29-60.26 146.05 147.74-19.66-28.58 145.8 142.95-48.97 7.99 150.3 77.59-50.48z" fill="#FCCC67" p-id="1915"></path><path d="M805.82 494.96l-57.07 109.96-92.67 60.28-6.87-129.01-122.79 42.05 25.18-128.46-130.23 17.33 47.06-114.07-116.51-39.24 59.81-52.72 118.64-41.57C497.85 247.36 567.68 360.05 641 423.29c7.62 6.9 15.27 13.48 22.85 19.61h0.01c19.65 15.89 40.82 30.65 62.7 42.12h0.01c8.47 4.43 16.58 8.09 24.22 10.9h0.01c20.14 6.98 40.9 11.85 55.02-0.96z" fill="#FCCC67" p-id="1916"></path><path d="M748.75 604.92l-10.6 20.42a591.562 591.562 0 0 1-51.77 82.4l-77.6 50.49-7.99-150.3-142.95 48.97 28.58-145.8-147.74 19.66 60.26-146.05-149.33-50.29L280.73 307l131-45.9-59.82 52.72 116.52 39.25-47.06 114.07 130.23-17.33-25.18 128.46 122.79-42.05 6.87 129.01 92.67-60.31zM887.95 412.83l-82.12 82.12s-0.01 0-0.01 0.01c-0.67 0.67-1.37 1.28-2.11 1.87a25.49 25.49 0 0 1-6.2 3.54c-0.91 0.37-1.86 0.69-2.84 0.97-0.49 0.14-0.98 0.27-1.49 0.4-1.35 0.32-2.75 0.57-4.21 0.75-10.32 1.25-23.33-1.07-38.16-6.56-0.01-0.01-0.01 0-0.01 0-7.64-2.82-15.75-6.47-24.22-10.9h-0.01c-7.63-3.98-15.54-8.59-23.66-13.8-1.81-1.16-3.63-2.35-5.46-3.55a338.16 338.16 0 0 1-8.25-5.65c-0.93-0.66-1.86-1.31-2.79-1.96a460.506 460.506 0 0 1-22.54-17.17s0-0.01-0.01 0a526.885 526.885 0 0 1-22.84-19.61c0-0.01 0-0.01-0.01 0a566.56 566.56 0 0 1-19.95-19.01C545 328.22 504.4 245.5 530.38 219.51l82.13-82.13c-19.91 19.91-0.72 73.15 43.59 131.18 13.49 17.69 29.32 35.81 47.09 53.59 76.05 76.06 158.78 116.66 184.76 90.68z" fill="#F5922F" p-id="1917"></path><path d="M887.95 412.83l-82.12 82.12s-0.01 0-0.01 0.01c-15.61 12.82-32.19 8.31-55.03 0.96-31.11-11.78-60.5-31.81-86.93-53.02 0 0 0-0.01-0.01 0a547.593 547.593 0 0 1-22.84-19.61c0-0.01 0-0.01-0.01 0-12.96-11.77-26.25-25.03-38.07-37.99 17.82-39.13 35.48-77.91 53.15-116.73 46.41 70.8 201.37 186.36 231.87 144.26z" fill="#DE3C5B" p-id="1918"></path><path d="M805.82 494.96l-57.07 109.96-92.67 60.28-6.87-129.01-122.79 42.05 8.56-43.66c23.04-50.62 45.71-100.42 67.95-149.29 5.79 6.34 11.83 12.68 18.13 18.97 76.07 76.07 158.79 116.67 184.76 90.7z" fill="#F5922F" p-id="1919"></path><path d="M748.75 604.92l-10.6 20.42a591.562 591.562 0 0 1-51.77 82.4l-77.6 50.49-7.99-150.3-117.5 40.25c17.43-38.29 34.67-76.17 51.7-113.59l-8.56 43.66 122.79-42.05 6.87 129.01 92.66-60.29z" fill="#DE3C5B" p-id="1920"></path><path d="M686.38 707.74a591.656 591.656 0 0 1-42.22 50.3 592.89 592.89 0 0 1-96.01 82.53 583.352 583.352 0 0 1-31.02 19.97c-26.02 3.34-66.4-12.32-111.29-42.14 4.6-10.12 9.2-20.22 13.78-30.29 21.48-47.19 42.71-93.86 63.68-139.94l117.5-40.25 7.99 150.3 77.59-50.48z" fill="#F5922F" p-id="1921"></path><path d="M517.12 860.54a235.078 235.078 0 0 1-120.74 33.36c-8.11 0-16.23-0.42-24.31-1.26 11.31-24.88 22.56-49.63 33.76-74.24 44.89 29.81 85.28 45.48 111.29 42.14z" fill="#DE3C5B" p-id="1922"></path><path d="M599.04 801.28c-0.25 0.2-24.95 20.37-25.2 20.56-1.05 0.81-2.1 1.62-3.15 2.41-3.16 2.41-9.94 7.33-9.94 7.33-48.05 0-96.5-20.95-138.77-48.65 5.94-13.05 11.85-26.06 17.76-39.03 48.48 39.03 113.62 51.83 159.3 57.38z" fill="#FCCC67" p-id="1923"></path><path d="M439.73 743.9c-5.91 12.97-11.82 25.97-17.76 39.03-25.04-19.11-49.95-40.8-73.61-64.46-39.33-39.34-73.73-82.53-99.47-124.93-17.5-28.82-29.95-58.96-33.8-87.39 5.87-7.52 7.46-8.82 14.33-15.68l20.19-20.19c7.35 44.05 41.31 131.71 128.27 218.68 19.65 19.65 40.54 38.18 61.85 54.94z" fill="#FFFFFF" p-id="1924"></path></svg>