<?xml version="1.0" standalone="no"?><!DOCTYPE svg PUBLIC "-//W3C//DTD SVG 1.1//EN" "http://www.w3.org/Graphics/SVG/1.1/DTD/svg11.dtd"><svg t="1608602169086" class="icon" viewBox="0 0 1024 1024" version="1.1" xmlns="http://www.w3.org/2000/svg" p-id="1881" xmlns:xlink="http://www.w3.org/1999/xlink" width="128" height="128"><defs><style type="text/css"></style></defs><path d="M81.92 808.96h860.16v133.12H81.92z" fill="#5CB9FF" p-id="1882"></path><path d="M942.08 960H81.92a17.92 17.92 0 0 1-17.92-17.92v-133.12a17.92 17.92 0 0 1 17.92-17.92h860.16a17.92 17.92 0 0 1 17.92 17.92v133.12a17.92 17.92 0 0 1-17.92 17.92z m-842.24-35.84h824.32v-97.28h-824.32v97.28z" fill="" p-id="1883"></path><path d="M199.68 445.44h139.94496v363.52H199.68z" fill="#FFDD50" p-id="1884"></path><path d="M339.62496 826.88H199.68a17.92 17.92 0 0 1-17.92-17.92V445.44a17.92 17.92 0 0 1 17.92-17.92h139.94496a17.92 17.92 0 0 1 17.92 17.92v363.52a17.92 17.92 0 0 1-17.92 17.92z m-122.02496-35.84h104.10496v-327.68H217.6v327.68z" fill="" p-id="1885"></path><path d="M684.37504 445.44H824.32v363.52h-139.94496z" fill="#76E276" p-id="1886"></path><path d="M824.32 826.88h-139.94496a17.92 17.92 0 0 1-17.92-17.92V445.44a17.92 17.92 0 0 1 17.92-17.92H824.32a17.92 17.92 0 0 1 17.92 17.92v363.52a17.92 17.92 0 0 1-17.92 17.92z m-122.02496-35.84H806.4v-327.68h-104.10496v327.68z" fill="" p-id="1887"></path><path d="M512 81.92L148.48 445.44h727.04z" fill="#FF5757" p-id="1888"></path><path d="M875.52 463.36H148.48a17.91488 17.91488 0 1 1-12.672-30.592l363.52-363.52a17.93024 17.93024 0 0 1 25.344 0l363.52 363.52A17.92 17.92 0 0 1 875.52 463.36z m-683.776-35.84h640.512L512 107.264 191.744 427.52z" fill="" p-id="1889"></path><path d="M512 644.4544m-135.33696 0a135.33696 135.33696 0 1 0 270.67392 0 135.33696 135.33696 0 1 0-270.67392 0Z" fill="#FFDD50" p-id="1890"></path><path d="M512 797.71648c-84.5056 0-153.25696-68.75136-153.25696-153.26208 0-84.5056 68.75136-153.25696 153.25696-153.25696s153.25696 68.75136 153.25696 153.25696c0 84.51072-68.75136 153.26208-153.25696 153.26208z m0-270.67904c-64.74752 0-117.41696 52.66944-117.41696 117.41696S447.25248 761.87648 512 761.87648s117.41696-52.67456 117.41696-117.42208-52.66944-117.41696-117.41696-117.41696z" fill="" p-id="1891"></path></svg>