<?xml version="1.0" standalone="no"?><!DOCTYPE svg PUBLIC "-//W3C//DTD SVG 1.1//EN" "http://www.w3.org/Graphics/SVG/1.1/DTD/svg11.dtd"><svg t="1608601280982" class="icon" viewBox="0 0 1024 1024" version="1.1" xmlns="http://www.w3.org/2000/svg" p-id="1748" xmlns:xlink="http://www.w3.org/1999/xlink" width="128" height="128"><defs><style type="text/css"></style></defs><path d="M606.33 120.06H418.48h-0.01l-34.56 0.01c-23.91 0-47.24 4.65-69.33 13.8-22.09 9.15-41.87 22.37-58.78 39.28-17.99 17.99-31.92 38.98-41.41 62.38-9.16 22.59-13.81 46.46-13.81 70.93s4.65 48.34 13.81 70.93c9.49 23.41 23.43 44.4 41.41 62.38l47.95 47.95-106.94 106.96a73.333 73.333 0 0 0-14.2 19.93l-78.26 78.26c-11.13 11.13-11.13 29.18 0 40.32l8.06 8.06c1.56 1.56 3.26 2.9 5.06 4.03 1.12 1.8 2.47 3.49 4.03 5.06l8.06 8.06c1.56 1.56 3.26 2.91 5.06 4.03 1.12 1.8 2.47 3.49 4.03 5.06l8.06 8.06c1.56 1.56 3.26 2.91 5.06 4.03 1.12 1.8 2.47 3.49 4.03 5.06l8.06 8.06c1.54 1.54 3.23 2.88 5.05 4.02 1.13 1.8 2.47 3.5 4.04 5.07l8.06 8.06c1.56 1.56 3.26 2.91 5.06 4.03 1.12 1.8 2.47 3.49 4.03 5.06l8.06 8.06c1.57 1.57 3.27 2.91 5.07 4.04a28.14 28.14 0 0 0 4.02 5.05l8.06 8.06c1.56 1.56 3.26 2.91 5.06 4.03 1.12 1.8 2.47 3.49 4.03 5.06l8.06 8.06c1.56 1.56 3.26 2.91 5.06 4.03 1.12 1.8 2.47 3.49 4.03 5.06l8.06 8.06c1.56 1.56 3.26 2.9 5.06 4.03 1.12 1.8 2.47 3.49 4.03 5.06l8.06 8.06c5.57 5.57 12.86 8.35 20.16 8.35s14.59-2.78 20.16-8.35l77.71-77.71c4.27-2.02 8.34-4.44 12.15-7.24 3-2.2 5.87-4.67 8.52-7.32l55.79-55.79c0.08-0.08 0.16-0.16 0.24-0.25l50.92-50.92 106.76 106.76c0.9 0.9 1.86 1.81 2.85 2.7 0.15 0.13 0.29 0.26 0.43 0.38 0.84 0.74 1.68 1.46 2.51 2.13 0.22 0.18 0.43 0.34 0.64 0.5 0.83 0.66 1.64 1.27 2.43 1.85 0.2 0.14 0.4 0.28 0.6 0.43 0.87 0.62 1.73 1.2 2.58 1.76 0.17 0.11 0.33 0.21 0.49 0.31 0.43 0.27 1.01 0.64 1.67 1.04l0.45 0.27c0.28 0.16 0.55 0.32 0.82 0.47 0.06 0.03 0.11 0.06 0.17 0.09 0.02 0.01 0.03 0.02 0.05 0.03 1 0.57 2.01 1.11 3.01 1.62l0.06 0.03c0.04 0.02 0.08 0.04 0.13 0.06 0.18 0.09 0.37 0.19 0.56 0.28l78.3 78.3c5.57 5.57 12.86 8.35 20.16 8.35 7.3 0 14.59-2.78 20.16-8.35l8.06-8.06c1.54-1.54 2.88-3.23 4.02-5.05 1.8-1.13 3.5-2.47 5.07-4.04l8.06-8.06c1.56-1.56 2.91-3.26 4.03-5.06 1.8-1.12 3.49-2.47 5.06-4.03l8.06-8.06c1.56-1.56 2.9-3.26 4.03-5.06 1.8-1.12 3.49-2.47 5.06-4.03l8.06-8.06c1.56-1.56 2.91-3.26 4.03-5.06 1.8-1.12 3.49-2.47 5.06-4.03l8.06-8.06c1.56-1.56 2.91-3.26 4.03-5.06 1.8-1.12 3.49-2.47 5.06-4.03l8.06-8.06c1.56-1.56 2.9-3.26 4.03-5.06 1.8-1.12 3.49-2.47 5.06-4.03l8.06-8.06c1.56-1.56 2.91-3.26 4.03-5.06 1.8-1.12 3.49-2.47 5.06-4.03l8.06-8.06c1.56-1.56 2.91-3.26 4.03-5.06 1.8-1.12 3.49-2.47 5.06-4.03l8.06-8.06c1.57-1.57 2.91-3.27 4.04-5.07a28.14 28.14 0 0 0 5.05-4.02l8.06-8.06c11.13-11.13 11.13-29.18 0-40.32l-77.08-77.08-0.21-0.45-0.53-1.09-0.05-0.09c-0.26-0.53-0.68-1.37-1.17-2.28-0.21-0.39-0.43-0.78-0.65-1.17l-0.06-0.11c-0.43-0.76-0.83-1.45-1.24-2.12-0.27-0.44-0.54-0.88-0.82-1.32-0.42-0.66-0.86-1.31-1.34-2.01-0.3-0.44-0.6-0.86-0.9-1.29-0.57-0.8-1.1-1.48-1.49-1.99l-0.09-0.12c-0.28-0.36-0.55-0.72-0.84-1.07-0.62-0.77-1.2-1.45-1.7-2.03l-0.03-0.03c-0.29-0.34-0.58-0.68-0.88-1.01-0.93-1.03-1.83-1.99-2.76-2.92l-57.39-57.39-0.21-0.21-49.16-49.16L769 439.78c17.99-17.99 31.92-38.98 41.41-62.38 9.16-22.59 13.81-46.46 13.81-70.93s-4.65-48.34-13.81-70.93c-9.49-23.41-23.43-44.4-41.41-62.38-16.91-16.91-36.69-30.12-58.78-39.28-22.09-9.15-45.42-13.8-69.33-13.8l-34.56-0.02z" fill="#3B394D" p-id="1749"></path><path d="M512.4 656.06l-71.32 71.32-55.78 55.78a45.367 45.367 0 0 1-5.26 4.5 44.793 44.793 0 0 1-11.47 6.1l-81.67 81.66-8.06-8.06 71.07-71.07c-4.99-0.37-9.92-1.56-14.6-3.57l-65.56 65.56-8.07-8.07 63.53-63.53a42.31 42.31 0 0 1-3.97-3.53l-5.34-5.33-63.3 63.3-8.06-8.06 63.3-63.31-9.08-9.08-63.31 63.31-8.06-8.07 63.3-63.3-9.08-9.08-63.3 63.3-8.07-8.07 63.31-63.3-9.08-9.08-63.31 63.3-8.06-8.06 63.3-63.31-9.08-9.08-63.3 63.31-8.07-8.07 63.3-63.3-9.08-9.08-63.3 63.3-8.07-8.07 63.31-63.3-5.14-5.14a46.618 46.618 0 0 1-3.7-4.19l-63.55 63.54-8.06-8.06 65.64-65.64c-2-4.7-3.15-9.67-3.48-14.69l-71.24 71.24-8.07-8.07 82.08-82.08c2.2-5.87 5.65-11.38 10.38-16.1l127.1-127.11L512.4 656.06zM640.88 148.57c33.75 0.01 66.34 11.18 92.83 31.48l-23.72 53.12-32.64 73.1-47.49 4.87 6.75-65.88-55.79 5.72 48.03-48.04c20.07-20.07 5.86-54.38-22.52-54.38h34.55z" fill="#DE3C5B" p-id="1750"></path><path d="M663.81 336.33l-0.04 0.37-27.18 60.88-101.17-101.17 13.47-13.49 55.79-5.72-6.75 65.88z" fill="#DE3C5B" p-id="1751"></path><path d="M393.15 309.36l-65.87-6.76 6.75 65.88-65.88-6.75 5.72 55.74c-29.85-30.97-44.77-70.99-44.77-111.02 0-40.96 15.62-81.91 46.87-113.16a152.743 152.743 0 0 1 107.96-44.73h34.55c-28.38 0-42.59 34.31-22.52 54.38l46.24 46.24-55.79-5.72 6.74 65.9z" fill="#FDA2B8" p-id="1752"></path><path d="M531.23 447.42l-65.89-6.74 6.76 65.88-65.88-6.76 5.71 55.79-106.14-106.13-5.72-55.79 65.88 6.75-6.74-65.89 65.88 6.76-6.76-65.89 55.79 5.73 106.14 106.13-55.79-5.72z" fill="#FDA2B8" p-id="1753"></path><path d="M563.15 479.36l-65.88-6.75 6.76 65.88-65.88-6.76 5.71 55.79-31.93-31.93-5.71-55.79 65.88 6.76-6.76-65.88 65.89 6.74-6.76-65.88 55.79 5.72 31.93 31.93-55.79-5.71zM425.09 341.29l-65.88-6.76 6.75 65.89-65.88-6.76 5.72 55.79-29.83-29.83c-0.71-0.71-1.42-1.43-2.1-2.15l-5.72-55.74 65.88 6.75-6.75-65.88 65.87 6.76-6.75-65.88 55.79 5.72 31.93 31.93-55.79-5.72 6.76 65.88z" fill="#B8E5FA" p-id="1754"></path><path d="M754.87 363.53l-5.72 55.74c-0.34 0.36-0.69 0.72-1.04 1.07-0.35 0.36-0.7 0.71-1.06 1.07l-29.83 29.83v-0.01l5.72-55.78-65.88 6.76 6.75-65.89-65.88 6.76 6.76-65.88-55.79 5.72 31.93-31.93 55.79-5.72-6.75 65.88 65.87-6.76-6.75 65.88 65.88-6.74z" fill="#F5922F" p-id="1755"></path><path d="M662.54 519.62l55.78 5.71-106.13-106.14-55.79-5.71 6.75 65.88-65.88-6.75 6.76 65.88-65.88-6.76 5.71 55.79 68.54 68.54 4.16 4.16L550 693.66l-5.72-55.79 65.88 6.75-6.75-65.88 65.88 6.76z" fill="#FDA2B8" p-id="1756"></path><path d="M412.85 646.42l4.12-40.23 2.64-25.65-25.66 2.63-40.23 4.12 4.13-40.23 2.62-25.65-25.65 2.62-30.13 3.09-31.94 31.94 55.79-5.72-6.74 65.88 65.88-6.75-6.76 65.88 65.88-6.76-5.72 55.79 31.93-31.93 5.45-55.22z" fill="#F5922F" p-id="1757"></path><path d="M891.42 720.9l8.06-8.06-81.1-81.1a45.047 45.047 0 0 0-10.74-17.09l-57.39-57.39-55.79-5.72 6.75 65.88-65.88-6.76 6.76 65.88-65.88-6.76 5.72 55.79 57.39 57.39c4.62 4.62 10 8.03 15.73 10.23l82.04 82.04 8.06-8.06-71.03-71.03a45.31 45.31 0 0 0 14.74-3.43l65.37 65.37 8.06-8.06-63.26-63.26a45.29 45.29 0 0 0 4.33-3.8l5.02-5.02 62.99 62.99 8.06-8.06-62.99-62.99 9.09-9.09 62.99 62.99 8.06-8.06-62.99-62.99 9.09-9.09 62.99 62.99 8.06-8.06-62.99-62.99 9.09-9.09 62.99 62.99 8.06-8.06-62.99-62.99 9.09-9.09 62.99 62.99 8.06-8.06-62.99-62.99 9.09-9.09 62.99 62.99 8.06-8.06-62.99-62.99 5.45-5.45c1.23-1.23 2.37-2.52 3.42-3.85l63.2 63.2 8.06-8.06-65.2-65.2c2.03-4.65 3.24-9.57 3.63-14.54l70.67 70.67z" fill="#DE3C5B" p-id="1758"></path><path d="M701.22 617.43l-65.88-6.76 6.75 65.88-65.88-6.75 5.72 55.79L550 693.66l-5.72-55.79 65.88 6.75-6.75-65.88 65.88 6.76-6.75-65.88 55.78 5.71 31.94 31.94-55.79-5.73z" fill="#46AFE4" p-id="1759"></path><path d="M754.87 363.53l-5.72 55.74c-0.34 0.36-0.69 0.72-1.04 1.07-0.35 0.36-0.7 0.71-1.06 1.07l-29.83 29.83v-0.01l5.72-55.78-65.88 6.76 6.71-65.52 13.58-30.42 18.39-1.88-6.75 65.88 65.88-6.74zM669.29 585.5l-65.88-6.76 6.75 65.88-65.88-6.75 5.72 55.79-31.53-31.53 9.78-21.92 94.14-210.82 58.34 58.34 37.59 37.6-55.78-5.71z" fill="#DE3C5B" p-id="1760"></path></svg>