<?xml version="1.0" standalone="no"?><!DOCTYPE svg PUBLIC "-//W3C//DTD SVG 1.1//EN" "http://www.w3.org/Graphics/SVG/1.1/DTD/svg11.dtd"><svg t="1608600805943" class="icon" viewBox="0 0 1024 1024" version="1.1" xmlns="http://www.w3.org/2000/svg" p-id="1255" xmlns:xlink="http://www.w3.org/1999/xlink" width="128" height="128"><defs><style type="text/css"></style></defs><path d="M381.55 57.88c-5.67 0-11.35 1.35-16.56 4.07l-82.79 43.33a35.71 35.71 0 0 0-13.79 12.46l-63.72 98.81c-7 10.85-10.7 23.42-10.7 36.33v68.05c0 21.46 12.35 38.08 23.7 48.81v25.31c0 19.73 15.99 35.72 35.72 35.72h47.56l3.39 25.84v52.75l-139.3 343.63c-6.95 17.13 0.33 36.73 16.77 45.19 1.38 0.71 34.43 17.57 87.42 34.29 30.91 9.75 62.47 17.52 93.8 23.1 39.34 7 78.47 10.55 116.3 10.55 237.3 0 358.72-65.66 363.77-68.45 16.66-9.22 23.16-29.88 14.78-46.97l-169-344.89v-45.85l9.53-29.19h83.65c19.73 0 35.72-15.99 35.72-35.72v-21.64c15.58-12.4 25.36-31.51 25.36-52.49v-67.7c0-13.83-4.19-27.13-12.13-38.46l-55.75-79.6a67.887 67.887 0 0 0-38.13-34.62L625.42 60.02a35.765 35.765 0 0 0-12.18-2.14c-5.61 0-11.21 1.32-16.31 3.94l-114.3 58.65-80.66-56.18a35.64 35.64 0 0 0-20.42-6.41z" fill="#3B394D" p-id="1256"></path><path d="M253.43 352.4h95.64v42.65h-95.64z" fill="#B8E5FA" p-id="1257"></path><path d="M298.43 137.09l61.07-0.01v183.95c0 17.32-14.05 31.35-31.37 31.32l-67.14-0.1c-17.28-0.02-31.28-14.04-31.28-31.32v-68.05c0-6.02 1.74-11.91 5-16.97l63.72-98.82z" fill="#46AFE4" p-id="1258"></path><path d="M653.62 242.03v79.01c0 17.31 14.04 31.34 31.36 31.32h1.48l-33.27 101.91v59.82s-108.25 29.9-190.05 29.9c-75.94 0-123.05-29.9-123.05-29.9v-59.82l-41.65-317.18 83.11-43.49 78.74 116.18L613.24 93.6l72.79 26.41 38.93 14.12c1.14 0.41 2.24 0.88 3.3 1.41 0.26 0.13 0.52 0.26 0.78 0.4 0.63 0.33 1.26 0.69 1.87 1.08 0.25 0.14 0.5 0.3 0.75 0.47 1.34 0.87 2.6 1.84 3.78 2.9a31.028 31.028 0 0 1 2.35 2.34c0.03 0.02 0.05 0.04 0.07 0.07 0.37 0.4 0.73 0.82 1.07 1.25 0.03 0.02 0.05 0.05 0.07 0.08 0.32 0.4 0.63 0.8 0.93 1.21 0.03 0.04 0.06 0.08 0.08 0.12 0.29 0.38 0.55 0.77 0.81 1.16 0.06 0.08 0.11 0.17 0.16 0.25 0.25 0.38 0.5 0.77 0.72 1.17 0.08 0.12 0.14 0.23 0.2 0.34 0.25 0.42 0.48 0.85 0.71 1.29v0.02c0.26 0.5 0.5 1 0.73 1.51 0.22 0.49 0.43 0.99 0.63 1.5 0.01 0.01 0.01 0.03 0.02 0.04l-0.17-0.23c-49.71-0.38-90.2 39.81-90.2 89.52z" fill="#B8E5FA" p-id="1259"></path><path d="M463.14 543.99c10.57 0 21.59-0.5 32.76-1.37l-46.14 103.35-33.62 75.29-1.53 3.41-83.82 187.75a717.57 717.57 0 0 1-44.1-11.94c-18.18-5.54-34.06-11.16-47.16-16.2-26.28-10.11-41.37-17.87-41.37-17.87l141.93-350.08v-2.24s6.21 3.93 17.73 8.95c3.38 1.47 7.21 3.03 11.48 4.61 16.53 6.13 39.57 12.57 67.88 15.16 4.7 0.43 9.53 0.75 14.51 0.95 3.74 0.15 7.56 0.23 11.45 0.23zM588.5 259.18l-123.29-34.53-48.8 19.24c-23.67 9.33-48.01-11.98-41.89-36.68l22.5-90.8 63.27 93.37L613.24 93.59l17.3 6.28 10.81 115.19c2.73 29.17-24.63 52.02-52.85 44.12z" fill="#B8E5FA" p-id="1260"></path><path d="M414.61 724.67l1.53-3.41-23.91 202.82c-21.8-3.11-42.4-7.15-61.44-11.66l83.82-187.75zM522.43 539.94l43.28 387.35c-26.73 1.98-55.52 3.12-86.35 3.12-11.85 0-23.52-0.37-34.97-1.05l5.36-283.38 0.01-0.01 46.15-103.36c8.79-0.67 17.68-1.58 26.52-2.67zM606.35 525.38l122.54 375.79c-30.02 7.84-67.01 15.45-110.97 20.95l-81.72-384c25.63-3.63 50.2-8.4 70.15-12.74zM825.84 866.41s-15.53 8.59-46.55 19.48l-159.55-363.5c20.43-4.71 33.45-8.3 33.45-8.3l172.65 352.32z" fill="#46AFE4" p-id="1261"></path><path d="M495.91 542.61c1.1-0.08 2.2-0.17 3.3-0.26-1.11 0.1-2.21 0.19-3.31 0.27l0.01-0.01zM687.01 352.4l-0.55-0.04h-1.48c-17.32 0.02-31.36-14.01-31.36-31.32v-79.01c0-49.71 40.49-89.9 90.2-89.52l0.17 0.24c-3.25-8.37-9.96-15.33-19.03-18.62L686.03 120l-80.51 180.28-79.82 178.79c63.21-8.53 127.49-24.79 127.49-24.79l33.26-100.17v40.94h95.64V352.4h-95.08zM479.09 219.18l-39.63 15.78c-16.35 6.52-34.86-1.73-40.96-18.24l-34.94-94.54 27.61-14.4 69.12 102 8.21-6.23 10.59 15.63zM633.42 100.91l35.47 12.83-88.32 113.71c-15.68 20.18-44.13 25.14-65.71 11.45l-34.37-21.8 152.93-116.19z" fill="#46AFE4" p-id="1262"></path><path d="M381.56 93.59l-36.79 19.19 34.93 94.53c6.1 16.51 24.61 24.76 40.97 18.24l39.63-15.77-78.74-116.19zM613.23 93.59l35.47 12.83-96 113.25c-13.86 16.35-37.33 20.64-56.08 10.25l-36.33-20.13 152.94-116.2z" fill="#FFFFFF" p-id="1263"></path><path d="M451.69 543.76l-1.93 102.21-0.01 0.01-33.61 75.28 21.04-178.45c4.7 0.43 9.53 0.75 14.51 0.95zM369.3 527.65l-82.61 372.83c-18.18-5.54-34.06-11.16-47.15-16.21l118.29-361.24c3.37 1.48 7.2 3.05 11.47 4.62z" fill="#46AFE4" p-id="1264"></path><path d="M653.19 454.27v59.82s-108.25 29.9-190.05 29.9c-75.94 0-123.05-29.9-123.05-29.9v-59.82s47.94 29.91 121.39 29.91c73.44 0.01 191.71-29.91 191.71-29.91z" fill="#FFFFFF" p-id="1265"></path><path d="M421.8 493.57h82.58v40H421.8z" fill="#FCCC67" p-id="1266"></path><path d="M653.19 454.28v59.81s-81.01 22.38-155.82 28.41l28.33-63.43c63.21-8.53 127.49-24.79 127.49-24.79z" fill="#B8E5FA" p-id="1267"></path></svg>