<?xml version="1.0" standalone="no"?><!DOCTYPE svg PUBLIC "-//W3C//DTD SVG 1.1//EN" "http://www.w3.org/Graphics/SVG/1.1/DTD/svg11.dtd"><svg t="1608601982640" class="icon" viewBox="0 0 1024 1024" version="1.1" xmlns="http://www.w3.org/2000/svg" p-id="1558" xmlns:xlink="http://www.w3.org/1999/xlink" width="128" height="128"><defs><style type="text/css"></style></defs><path d="M279.1424 599.02976a29.5168 29.5168 0 0 1-29.5168-29.5168V288.10752c0-89.05728 44.38528-206.23872 167.296-206.23872 98.432 0 93.7472 260.92544 0 260.92544-54.56384 0-78.87872-40.58624-85.83168-57.42592-1.48992-3.61472-20.4032-8.92416-22.43072 6.68672v277.46304a29.5168 29.5168 0 0 1-29.5168 29.51168z" fill="#FFDD50" p-id="1559"></path><path d="M279.1424 616.94976c-26.15296 0-47.4368-21.27872-47.4368-47.4368V288.10752c0-107.96032 57.9584-224.1536 185.216-224.1536 62.16704 0 89.99424 73.32352 89.99424 145.99168 0 72.61184-28.16 150.76352-89.99424 150.76352-42.5728 0-72.66304-21.48352-90.3424-46.63296v255.4368c-0.00512 26.15808-21.28384 47.4368-47.4368 47.4368zM416.9216 99.78368c-117.91872 0-149.376 118.3744-149.376 188.31872v281.41056a11.60704 11.60704 0 0 0 11.5968 11.5968 11.60704 11.60704 0 0 0 11.5968-11.5968V292.04992c0-0.768 0.0512-1.54112 0.14848-2.304 1.83296-14.14656 11.53024-24.06912 25.29792-25.88672 11.67872-1.53088 26.68032 3.07712 31.4624 14.6688 4.48512 10.86976 22.75328 46.34624 69.26848 46.34624 33.89952 0 54.15936-58.43456 54.15936-114.92864 0.00512-54.74304-18.60096-110.16192-54.15424-110.16192z" fill="" p-id="1560"></path><path d="M416.9216 360.70912a17.92 17.92 0 1 1 0-35.84c33.89952 0 54.15936-58.43456 54.15936-114.92864 0-54.74304-18.60096-110.1568-54.15936-110.1568a17.92 17.92 0 1 1 0-35.84c29.33248 0 54.30272 17.6896 70.30784 49.80224 12.6976 25.47712 19.6864 59.63776 19.6864 96.18944 0 72.62208-28.16512 150.77376-89.99424 150.77376z" fill="" p-id="1561"></path><path d="M778.47552 857.61024a29.5168 29.5168 0 0 0 29.5168-29.5168v-281.40544c0-89.05728-44.38528-206.23872-167.296-206.23872-98.432 0-93.7472 260.92544 0 260.92544 54.56384 0 78.87872-40.58624 85.83168-57.42592 1.48992-3.61472 20.4032-8.92416 22.43072 6.68672v277.46304a29.5168 29.5168 0 0 0 29.5168 29.51168z" fill="#FFDD50" p-id="1562"></path><path d="M778.48064 875.53024c-26.15808 0-47.44192-21.27872-47.44192-47.4368v-255.43168c-17.68448 25.14944-47.7696 46.62272-90.3424 46.62272-61.83424 0-89.99424-78.15168-89.99424-150.76352 0-36.54656 6.9888-70.7072 19.6864-96.18432 16.00512-32.11776 40.97536-49.80224 70.30784-49.80224 127.2576 0 185.216 116.19328 185.216 224.1536v281.41056c0 26.15296-21.2736 47.43168-47.43168 47.43168z m-41.52832-353.37728c1.53088 0 3.04128 0.09728 4.49536 0.29184 13.76256 1.82272 23.4496 11.74528 25.27744 25.88672 0.1024 0.76288 0.14848 1.53088 0.14848 2.29888v277.46304a11.61216 11.61216 0 0 0 11.60192 11.5968 11.60704 11.60704 0 0 0 11.5968-11.5968v-281.41056c0-69.94432-31.4624-188.31872-149.376-188.31872-15.46752 0-28.33408 10.07616-38.23104 29.952-10.12224 20.31104-15.92832 49.54624-15.92832 80.2048 0 56.49408 20.25984 114.92864 54.15936 114.92864 46.52032 0 64.77824-35.47136 69.26848-46.34624 4.20352-10.14784 16.22016-14.9504 26.98752-14.9504z" fill="" p-id="1563"></path><path d="M640.70144 619.2896c-61.83424 0-89.99424-78.15168-89.99424-150.76352 0-36.54656 6.9888-70.7072 19.6864-96.18432 16.00512-32.11776 40.97536-49.80224 70.30784-49.80224a17.92 17.92 0 0 1 0 35.84c-15.46752 0-28.33408 10.07616-38.23104 29.952-10.12224 20.31104-15.92832 49.54624-15.92832 80.2048 0 56.49408 20.25984 114.92864 54.15936 114.92864a17.92 17.92 0 0 1 17.92 17.92 17.92512 17.92512 0 0 1-17.92 17.90464zM778.48064 959.9488a17.92 17.92 0 0 1-17.92-17.92v-84.41856a17.92 17.92 0 0 1 35.84 0v84.41856a17.92512 17.92512 0 0 1-17.92 17.92zM279.1424 959.9488a17.92 17.92 0 0 1-17.92-17.92v-343.00416a17.92 17.92 0 0 1 35.84 0v343.00416a17.92 17.92 0 0 1-17.92 17.92z" fill="" p-id="1564"></path><path d="M279.1424 824.22272a29.5168 29.5168 0 0 1-29.5168-29.5168V711.7312a29.5168 29.5168 0 1 1 59.0336 0v82.97984a29.5168 29.5168 0 0 1-29.5168 29.51168z" fill="#FFDD50" p-id="1565"></path><path d="M279.1424 842.14272c-26.15296 0-47.4368-21.27872-47.4368-47.4368v-82.97984c0-26.15808 21.27872-47.4368 47.4368-47.4368s47.4368 21.27872 47.4368 47.4368v82.97984c-0.00512 26.15808-21.28384 47.4368-47.4368 47.4368z m0-142.01344a11.60704 11.60704 0 0 0-11.5968 11.5968v82.97984a11.60704 11.60704 0 0 0 11.5968 11.5968 11.60704 11.60704 0 0 0 11.5968-11.5968v-82.97984a11.60704 11.60704 0 0 0-11.5968-11.5968zM415.37536 309.90848a17.92 17.92 0 0 1-10.51648-32.44032c3.38944-4.33664 16.20992-28.92288 14.94528-73.1136-0.59392-20.6592-4.20864-35.11808-7.13216-43.60704a17.92 17.92 0 0 1 33.87392-11.68384c5.37088 15.5648 8.50944 34.3296 9.07776 54.26688 1.2544 43.8272-9.53856 79.68256-22.6816 96.29184a17.96096 17.96096 0 0 1-12.4416 9.53344 17.79712 17.79712 0 0 1-5.12512 0.75264z m1.57184-0.39424h-0.0256 0.0256z m0.02048 0h-0.00512 0.00512z m-10.35264-33.16736l-0.02048 0.01024a0.04096 0.04096 0 0 0 0.02048-0.01024zM642.24256 568.49408a17.9712 17.9712 0 0 1-5.09952-0.7424 17.95584 17.95584 0 0 1-12.47744-9.55392c-13.14304-16.60928-23.93088-52.45952-22.67648-96.2816 0.57344-19.92704 3.712-38.68672 9.07776-54.25152a17.92 17.92 0 0 1 33.87904 11.67872c-2.92352 8.49408-6.53824 22.95296-7.12704 43.60192-1.26976 44.1856 11.55072 68.77184 14.94528 73.10848a17.92 17.92 0 0 1-10.5216 32.44032z m-1.57184-0.39424h0.0256-0.0256z m-0.0256 0h0.02048-0.02048z m-0.0256 0z m-6.74816-1.69472l0.01024 0.00512-0.01024-0.00512z m-0.24576-0.13312z m-0.01024-0.01024l0.01024 0.00512-0.01024-0.00512z m-0.02048-0.01024l0.01536 0.01024-0.01536-0.01024z m-0.01536-0.00512l0.01536 0.01024c-0.00512-0.01024-0.01024-0.01024-0.01536-0.01024z m19.5072-29.80864z m-2.09408-1.5104l0.02048 0.01024-0.02048-0.01024z" fill="" p-id="1566"></path></svg>