<?xml version="1.0" standalone="no"?><!DOCTYPE svg PUBLIC "-//W3C//DTD SVG 1.1//EN" "http://www.w3.org/Graphics/SVG/1.1/DTD/svg11.dtd"><svg t="1608601922218" class="icon" viewBox="0 0 1024 1024" version="1.1" xmlns="http://www.w3.org/2000/svg" p-id="1400" xmlns:xlink="http://www.w3.org/1999/xlink" width="128" height="128"><defs><style type="text/css"></style></defs><path d="M215.64416 861.2608l-100.736 80.7936-32.96256-32.95744 80.7936-100.74112" fill="#FFDD50" p-id="1401"></path><path d="M114.91328 960a17.89952 17.89952 0 0 1-12.69248-5.25824l-32.96256-32.95744a17.93536 17.93536 0 0 1-1.31072-23.91552l80.7936-100.736a17.9456 17.9456 0 1 1 28.00128 22.4512L106.0096 907.776l10.2144 10.2144 88.192-70.7328a17.9456 17.9456 0 0 1 22.46144 28.00128l-100.736 80.7936a17.90976 17.90976 0 0 1-11.22816 3.94752z" fill="" p-id="1402"></path><path d="M655.13984 561.56672l-409.5232 329.66656-112.84992-112.8448L462.4384 368.86528" fill="#5CB9FF" p-id="1403"></path><path d="M245.62176 909.184a17.92 17.92 0 0 1-12.6976-5.25824l-112.84992-112.84992a17.9456 17.9456 0 0 1-1.29024-23.94112l329.66656-409.5232a17.95584 17.95584 0 0 1 27.96544 22.50752l-319.5648 396.96896 90.0608 90.0608 396.97408-319.5648a17.9456 17.9456 0 1 1 22.5024 27.96032L256.8704 905.216a17.92 17.92 0 0 1-11.24864 3.968z" fill="" p-id="1404"></path><path d="M529.687435 494.314286a241.55648 241.55648 0 1 0 341.606488-341.618413 241.55648 241.55648 0 1 0-341.606488 341.618413Z" fill="#FFDD50" p-id="1405"></path><path d="M700.49792 583.00928c-69.31456 0-134.48192-26.99264-183.49568-76.01152-49.01888-49.01376-76.01152-114.18112-76.01152-183.49568s26.99264-134.48704 76.01152-183.5008c49.01376-49.01376 114.176-76.0064 183.49568-76.0064 69.31456 0 134.48192 26.99264 183.49568 76.0064 49.01888 49.01376 76.0064 114.18112 76.0064 183.5008 0 69.31456-26.98752 134.48192-76.0064 183.49568-49.01376 49.01376-114.176 76.01152-183.49568 76.01152z m0-483.11808c-59.72992 0-115.88096 23.26016-158.11584 65.49504-42.23488 42.23488-65.49504 98.38592-65.49504 158.11584s23.26016 115.88096 65.49504 158.11584c42.23488 42.23488 98.39104 65.49504 158.11584 65.49504 59.72992 0 115.88096-23.26016 158.11584-65.49504 42.22976-42.22976 65.48992-98.38592 65.48992-158.11584s-23.26016-115.88608-65.48992-158.11584c-42.23488-42.23488-98.38592-65.49504-158.11584-65.49504z" fill="" p-id="1406"></path><path d="M317.34784 833.48992L190.5152 706.65216l-57.74848 71.73632 112.84992 112.8448z" fill="#FF5757" p-id="1407"></path><path d="M245.62176 909.184a17.92 17.92 0 0 1-12.6976-5.25824l-112.84992-112.84992a17.9456 17.9456 0 0 1-1.29024-23.94112l57.74336-71.7312a17.9456 17.9456 0 0 1 26.67008-1.43872l126.83264 126.83776a17.9456 17.9456 0 0 1-1.4336 26.67008L256.8704 905.216a17.92 17.92 0 0 1-11.24864 3.968z m-88.77056-132.096l90.0608 90.0608 43.60704-35.10784-98.56512-98.56512-35.10272 43.61216zM871.30624 512.256a17.88416 17.88416 0 0 1-12.68736-5.25312l-341.61152-341.61152a17.9456 17.9456 0 0 1 25.37472-25.37984l341.61152 341.61152a17.9456 17.9456 0 0 1-12.68736 30.63296z" fill="" p-id="1408"></path></svg>